<svg width="19" height="19" viewBox="0 0 19 19" fill="none" xmlns="http://www.w3.org/2000/svg">
<path d="M16.1982 12.4474C17.6033 8.96751 16.3422 4.8568 13.1331 2.9193C10.8142 1.5192 8.064 1.60771 5.8944 2.90135L4.99305 1.25166C7.70504 -0.365353 11.1427 -0.476 14.0414 1.27413C18.1202 3.73676 19.6816 9.00807 17.7813 13.4032L19 14.139L15.2169 16.2421L15.067 11.7644L16.1982 12.4474ZM2.80177 6.55262C1.39668 10.0325 2.65786 14.1432 5.86687 16.0807C8.1858 17.4808 10.9359 17.3923 13.1054 16.0987L14.0068 17.7484C11.2949 19.3653 7.85727 19.476 4.95858 17.7259C0.879809 15.2633 -0.681535 9.99192 1.21873 5.59683L0 4.861L3.78306 2.75795L3.93299 7.2356L2.80177 6.55262ZM6.32101 11.3997H11.3166C11.5674 11.3997 11.7707 11.187 11.7707 10.9248C11.7707 10.6625 11.5674 10.4498 11.3166 10.4498H7.68342C6.42936 10.4498 5.41272 9.38668 5.41272 8.07523C5.41272 6.76379 6.42936 5.70064 7.68342 5.70064H8.59171V4.7508H10.4083V5.70064H12.679V7.60031H7.68342C7.43262 7.60031 7.22929 7.81298 7.22929 8.07523C7.22929 8.33748 7.43262 8.55015 7.68342 8.55015H11.3166C12.5706 8.55015 13.5873 9.61331 13.5873 10.9248C13.5873 12.2362 12.5706 13.2994 11.3166 13.2994H10.4083V14.2492H8.59171V13.2994H6.32101V11.3997Z" fill="#49A078"/>
</svg>
