<svg width="12" height="22" viewBox="0 0 12 22" fill="none" xmlns="http://www.w3.org/2000/svg">
<path d="M5.29071 2.84294L7.3092 8.608L7.7049 9.73571L7.7122 4.87563L7.7212 0.00917296H11.9921L11.9994 10.9825C12.0021 17.0243 11.9957 21.9844 11.9839 21.9936C11.9721 22.0027 11.7752 21.9936 11.5483 21.966C10.5591 21.8469 9.25859 21.7277 8.2086 21.6818C7.8619 21.6653 7.5751 21.647 7.5715 21.6433C7.5688 21.6397 7.2992 20.8732 6.7956 19.4366L6.7957 19.4327C6.3041 18.0302 5.5841 15.9739 4.65201 13.3094L4.31161 12.3465L4.30441 16.9786C4.29801 21.3884 4.29441 21.6359 4.24721 21.6359C4.08391 21.6359 2.6772 21.7277 2.2071 21.7735C1.89854 21.801 1.28143 21.8652 0.836738 21.9202C0.391139 21.9715 0.0208698 22.0064 0.0136098 21.999C0.00634987 21.9916 0 17.04 0 10.9945V0.00183859H0.00516985L0.00452994 0H4.29261L4.32071 0.0815965C4.32781 0.096558 4.38551 0.259064 4.47801 0.522118L5.11941 2.31863L5.2918 2.81921L5.29071 2.84294Z" fill="#49A078"/>
</svg>
