<svg width="363" height="206" viewBox="0 0 363 206" fill="none" xmlns="http://www.w3.org/2000/svg">
<path d="M2.62646 8H0.880859L2.25049 6.07178C2.48682 5.73877 2.73389 5.41113 2.9541 5.07275C1.50928 5.2876 0.279297 4.19727 0.279297 2.7417C0.279297 1.29688 1.46094 0.185059 2.88965 0.185059C4.30225 0.185059 5.50537 1.31299 5.50537 2.7417C5.50537 3.57422 5.2583 4.20801 4.7749 4.88477V4.87939L2.62646 8ZM2.88965 1.52783C2.23975 1.52783 1.74023 2.11328 1.74023 2.7417C1.74023 3.38086 2.23438 3.94482 2.88965 3.94482C3.55029 3.94482 4.03906 3.38623 4.03906 2.7417C4.03906 2.09717 3.55566 1.52783 2.88965 1.52783ZM7.89551 1.64062V3.1123C9.60352 2.43555 11.3008 3.61719 11.3008 5.44336C11.3008 6.92041 10.0815 8.11279 8.60986 8.11279C7.68604 8.11279 6.70312 7.61328 6.2627 6.78076L7.49805 6.12549C8.02979 7.21582 9.84521 6.86133 9.84521 5.4541C9.84521 4.77197 9.3457 4.18652 8.64209 4.18652C8.20703 4.18652 7.92236 4.3584 7.64307 4.68604L6.4668 4.21338V0.297852H10.8604V1.64062H7.89551ZM15.1626 6.80762C16.4893 6.80762 16.6987 5.16406 16.6987 4.15967C16.6987 3.1499 16.4946 1.50098 15.1626 1.50098C13.8467 1.50098 13.5459 3.14453 13.5459 4.15967C13.5459 5.19629 13.8252 6.80762 15.1626 6.80762ZM18.1543 4.15967C18.1543 6.05029 17.3755 8.14502 15.1626 8.14502C12.9497 8.14502 12.0903 6.07715 12.0903 4.15967C12.0903 2.24756 12.9551 0.158203 15.1626 0.158203C17.3809 0.158203 18.1543 2.26904 18.1543 4.15967Z" fill="#B3B3B3"/>
<path d="M0.284668 46.2979H5.63965V47.5225L2.36865 54H0.78418L4.07666 47.6406H0.284668V46.2979ZM5.89209 49.252V48.7363C5.89209 47.3506 7.01465 46.2012 8.40576 46.2012C9.81299 46.2012 10.9194 47.3076 10.9194 48.7148C10.9194 49.5635 10.4307 50.2778 9.80762 50.8096L7.60547 52.6787H10.9355V54H5.89746V52.4639L8.8999 49.7944C9.24902 49.4883 9.46387 49.1069 9.46387 48.6343C9.46387 47.2217 7.35303 47.1572 7.35303 48.6558V49.252H5.89209ZM13.3418 47.6406V49.1123C15.0498 48.4355 16.7471 49.6172 16.7471 51.4434C16.7471 52.9204 15.5278 54.1128 14.0562 54.1128C13.1323 54.1128 12.1494 53.6133 11.709 52.7808L12.9443 52.1255C13.4761 53.2158 15.2915 52.8613 15.2915 51.4541C15.2915 50.772 14.792 50.1865 14.0884 50.1865C13.6533 50.1865 13.3687 50.3584 13.0894 50.686L11.9131 50.2134V46.2979H16.3066V47.6406H13.3418Z" fill="#B3B3B3"/>
<path d="M3.53418 92.2979H4.76953V96.7559H5.89746V98.0986H4.76953V100H3.31396V98.0986H0.112793V97.105L3.53418 92.2979ZM3.37305 94.4731L1.68652 96.8364H3.37305V94.4731ZM6.56885 94.4087C6.6709 93.0713 7.65381 92.2012 8.98047 92.2012C10.1836 92.2012 11.3062 93.1357 11.3062 94.3818C11.3062 94.9512 11.043 95.4829 10.5972 95.832V95.8643C11.2686 96.2295 11.564 96.9116 11.564 97.6528C11.564 99.0547 10.3179 100.107 8.95898 100.107C7.44434 100.107 6.38086 99.1245 6.25195 97.6152L7.70752 97.4971C7.77197 98.2222 8.15332 98.7808 8.93213 98.7808C10.3984 98.7808 10.6133 96.5947 8.85156 96.5947H8.37891V95.2734H8.85156C10.1729 95.2734 10.1191 93.5332 8.94287 93.5332C8.35742 93.5332 8.06738 93.9897 8.0083 94.5269L6.56885 94.4087ZM15.4312 98.8076C16.7578 98.8076 16.9673 97.1641 16.9673 96.1597C16.9673 95.1499 16.7632 93.501 15.4312 93.501C14.1152 93.501 13.8145 95.1445 13.8145 96.1597C13.8145 97.1963 14.0938 98.8076 15.4312 98.8076ZM18.4229 96.1597C18.4229 98.0503 17.644 100.145 15.4312 100.145C13.2183 100.145 12.3589 98.0771 12.3589 96.1597C12.3589 94.2476 13.2236 92.1582 15.4312 92.1582C17.6494 92.1582 18.4229 94.269 18.4229 96.1597Z" fill="#B3B3B3"/>
<path d="M0.520996 141.252V140.736C0.520996 139.351 1.64355 138.201 3.03467 138.201C4.44189 138.201 5.54834 139.308 5.54834 140.715C5.54834 141.563 5.05957 142.278 4.43652 142.81L2.23438 144.679H5.56445V146H0.526367V144.464L3.52881 141.794C3.87793 141.488 4.09277 141.107 4.09277 140.634C4.09277 139.222 1.98193 139.157 1.98193 140.656V141.252H0.520996ZM9.53369 144.808C10.8604 144.808 11.0698 143.164 11.0698 142.16C11.0698 141.15 10.8657 139.501 9.53369 139.501C8.21777 139.501 7.91699 141.145 7.91699 142.16C7.91699 143.196 8.19629 144.808 9.53369 144.808ZM12.5254 142.16C12.5254 144.05 11.7466 146.145 9.53369 146.145C7.3208 146.145 6.46143 144.077 6.46143 142.16C6.46143 140.248 7.32617 138.158 9.53369 138.158C11.752 138.158 12.5254 140.269 12.5254 142.16ZM16.5698 144.808C17.8965 144.808 18.106 143.164 18.106 142.16C18.106 141.15 17.9019 139.501 16.5698 139.501C15.2539 139.501 14.9531 141.145 14.9531 142.16C14.9531 143.196 15.2324 144.808 16.5698 144.808ZM19.5615 142.16C19.5615 144.05 18.7827 146.145 16.5698 146.145C14.3569 146.145 13.4976 144.077 13.4976 142.16C13.4976 140.248 14.3623 138.158 16.5698 138.158C18.7881 138.158 19.5615 140.269 19.5615 142.16Z" fill="#B3B3B3"/>
<path d="M4.51416 190.808C5.84082 190.808 6.05029 189.164 6.05029 188.16C6.05029 187.15 5.84619 185.501 4.51416 185.501C3.19824 185.501 2.89746 187.145 2.89746 188.16C2.89746 189.196 3.17676 190.808 4.51416 190.808ZM7.50586 188.16C7.50586 190.05 6.72705 192.145 4.51416 192.145C2.30127 192.145 1.44189 190.077 1.44189 188.16C1.44189 186.248 2.30664 184.158 4.51416 184.158C6.73242 184.158 7.50586 186.269 7.50586 188.16Z" fill="#B3B3B3"/>
<line x1="25" y1="4.5" x2="363" y2="4.5" stroke="#B3B3B3" stroke-dasharray="2 2"/>
<line x1="25" y1="51.5" x2="363" y2="51.5" stroke="#B3B3B3" stroke-dasharray="2 2"/>
<line x1="25" y1="97.5" x2="363" y2="97.5" stroke="#B3B3B3" stroke-dasharray="2 2"/>
<line x1="25" y1="143.5" x2="363" y2="143.5" stroke="#B3B3B3" stroke-dasharray="2 2"/>
<path d="M32 44C32 39.5817 35.5817 36 40 36H55C59.4183 36 63 39.5817 63 44V190H32V44Z" fill="#D9D9D9"/>
<path d="M80 84C80 79.5817 83.5817 76 88 76H103C107.418 76 111 79.5817 111 84V190H80V84Z" fill="#D9D9D9"/>
<path d="M128 54C128 49.5817 131.582 46 136 46H151C155.418 46 159 49.5817 159 54V190H128V54Z" fill="#D9D9D9"/>
<path d="M176 33C176 28.5817 179.582 25 184 25H199C203.418 25 207 28.5817 207 33V190H176V33Z" fill="#D9D9D9"/>
<path d="M224 63C224 58.5817 227.582 55 232 55H247C251.418 55 255 58.5817 255 63V190H224V63Z" fill="#998FC7"/>
<path d="M272 73C272 68.5817 275.582 65 280 65H295C299.418 65 303 68.5817 303 73V190H272V73Z" fill="#D9D9D9"/>
<path d="M320 19C320 14.5817 323.582 11 328 11H343C347.418 11 351 14.5817 351 19V190H320V19Z" fill="#D9D9D9"/>
<line x1="25" y1="189.5" x2="363" y2="189.5" stroke="#B3B3B3" stroke-dasharray="2 2"/>
<path d="M44.8687 195.298H46.104V203H44.6646V197.86L42.2314 201.356L39.7983 197.86V203H38.3643V195.298H39.5942L42.2314 199.079L44.8687 195.298ZM49.8691 203.113C48.2578 203.113 46.9688 201.883 46.9688 200.261C46.9688 198.66 48.2793 197.387 49.8691 197.387C51.4644 197.387 52.7749 198.655 52.7749 200.261C52.7749 201.877 51.4697 203.113 49.8691 203.113ZM48.333 200.255C48.333 201.125 48.9937 201.818 49.8691 201.818C50.7446 201.818 51.4053 201.125 51.4053 200.255C51.4053 199.396 50.7393 198.682 49.8691 198.682C48.999 198.682 48.333 199.396 48.333 200.255ZM55.0039 197.5V198.392C55.2617 197.742 55.8955 197.414 56.5723 197.414C57.9902 197.414 58.4897 198.703 58.4897 199.928V203H57.1201V199.938C57.1201 199.256 56.8086 198.682 56.062 198.682C55.3208 198.682 55.0039 199.262 55.0039 199.938V203H53.6343V197.5H55.0039Z" fill="#B3B3B3"/>
<path d="M89.9307 195.298H96.0698V196.667H93.728V203H92.2778V196.667H89.9307V195.298ZM96.9399 197.5V200.803C96.9399 201.346 97.3589 201.813 97.9121 201.813C98.4707 201.813 98.8896 201.351 98.8896 200.803V197.5H100.259V200.803C100.259 202.098 99.1958 203.113 97.9121 203.113C96.623 203.113 95.5649 202.103 95.5649 200.803V197.5H96.9399ZM102.467 199.724H105.281C104.921 198.306 102.789 198.311 102.467 199.724ZM106.205 202.125C104.417 204.058 101.027 203 101.027 200.255C101.027 198.666 102.284 197.393 103.874 197.393C105.464 197.393 106.731 198.666 106.731 200.255C106.731 200.459 106.71 200.664 106.683 200.868H102.461C102.789 202.103 104.481 202.189 105.281 201.308L106.205 202.125Z" fill="#B3B3B3"/>
<path d="M142.771 195.276H144L145.794 200.75L147.443 195.298H148.926L146.455 203H145.204L143.388 197.312L141.562 203H140.321L137.851 195.298H139.333L140.977 200.75L142.771 195.276ZM149.828 199.724H152.643C152.283 198.306 150.15 198.311 149.828 199.724ZM153.566 202.125C151.778 204.058 148.389 203 148.389 200.255C148.389 198.666 149.646 197.393 151.235 197.393C152.825 197.393 154.093 198.666 154.093 200.255C154.093 200.459 154.071 200.664 154.044 200.868H149.823C150.15 202.103 151.842 202.189 152.643 201.308L153.566 202.125ZM159.056 202.194C158.631 202.774 158.035 203.097 157.31 203.097C155.769 203.097 154.684 201.743 154.684 200.261C154.684 198.821 155.817 197.403 157.321 197.403C158.041 197.403 158.631 197.715 159.056 198.29V195.298H160.425V203H159.056V202.194ZM156.053 200.255C156.053 201.12 156.708 201.818 157.584 201.818C158.459 201.818 159.125 201.125 159.125 200.255C159.125 199.396 158.454 198.682 157.584 198.682C156.708 198.682 156.053 199.396 156.053 200.255Z" fill="#B3B3B3"/>
<path d="M191.189 195.298H197.329V196.667H194.987V203H193.537V196.667H191.189V195.298ZM199.364 195.298V198.392C199.622 197.742 200.256 197.414 200.933 197.414C202.351 197.414 202.85 198.703 202.85 199.928V203H201.48V199.938C201.48 199.256 201.169 198.682 200.422 198.682C199.681 198.682 199.364 199.262 199.364 199.938V203H197.995V195.298H199.364ZM205.181 197.5V200.803C205.181 201.346 205.6 201.813 206.153 201.813C206.712 201.813 207.131 201.351 207.131 200.803V197.5H208.5V200.803C208.5 202.098 207.437 203.113 206.153 203.113C204.864 203.113 203.806 202.103 203.806 200.803V197.5H205.181Z" fill="#B3B3B3"/>
<path d="M240.161 195.298H245.226V196.651H241.595V198.279H244.292V199.643H241.595V203H240.161V195.298ZM246.547 197.5V198.687C246.692 197.854 247.262 197.5 248.073 197.5H248.486V198.768H247.654C246.854 198.768 246.547 199.315 246.547 200.051V203H245.178V197.5H246.547ZM249.056 203V197.5H250.431V203H249.056ZM249.056 196.807V195.298H250.431V196.807H249.056Z" fill="#B3B3B3"/>
<path d="M282.354 201.233C282.923 201.475 283.729 201.786 284.347 201.786C284.868 201.786 285.861 201.577 285.861 200.9C285.861 199.396 281.844 200.132 281.844 197.403C281.844 195.797 283.428 195.174 284.803 195.174C285.561 195.174 286.463 195.438 287.145 195.754L286.651 197.017C286.114 196.791 285.394 196.533 284.809 196.533C284.239 196.533 283.294 196.657 283.294 197.409C283.294 198.945 287.306 198.182 287.306 200.905C287.306 202.484 285.706 203.14 284.347 203.14C283.509 203.14 282.596 202.817 281.828 202.495L282.354 201.233ZM292.328 202.194C291.904 202.774 291.308 203.097 290.583 203.097C289.041 203.097 287.956 201.743 287.956 200.261C287.956 198.821 289.089 197.403 290.593 197.403C291.313 197.403 291.904 197.715 292.328 198.29V197.5H293.698V203H292.328V202.194ZM289.326 200.255C289.326 201.12 289.981 201.818 290.856 201.818C291.732 201.818 292.398 201.125 292.398 200.255C292.398 199.396 291.727 198.682 290.856 198.682C289.981 198.682 289.326 199.396 289.326 200.255ZM294.299 198.789V197.5H295.438V195.889H296.808V197.5H297.968V198.789H296.808V203H295.438V198.789H294.299Z" fill="#B3B3B3"/>
<path d="M329.033 201.233C329.602 201.475 330.408 201.786 331.025 201.786C331.546 201.786 332.54 201.577 332.54 200.9C332.54 199.396 328.522 200.132 328.522 197.403C328.522 195.797 330.107 195.174 331.482 195.174C332.239 195.174 333.142 195.438 333.824 195.754L333.33 197.017C332.792 196.791 332.073 196.533 331.487 196.533C330.918 196.533 329.973 196.657 329.973 197.409C329.973 198.945 333.985 198.182 333.985 200.905C333.985 202.484 332.384 203.14 331.025 203.14C330.188 203.14 329.274 202.817 328.506 202.495L329.033 201.233ZM336.23 197.5V200.803C336.23 201.346 336.649 201.813 337.202 201.813C337.761 201.813 338.18 201.351 338.18 200.803V197.5H339.549V200.803C339.549 202.098 338.486 203.113 337.202 203.113C335.913 203.113 334.855 202.103 334.855 200.803V197.5H336.23ZM342.004 197.5V198.392C342.262 197.742 342.896 197.414 343.572 197.414C344.99 197.414 345.49 198.703 345.49 199.928V203H344.12V199.938C344.12 199.256 343.809 198.682 343.062 198.682C342.321 198.682 342.004 199.262 342.004 199.938V203H340.634V197.5H342.004Z" fill="#B3B3B3"/>
<path d="M224 98H255V190H224V98Z" fill="#49A078"/>
<path d="M224 157H255V190H224V157Z" fill="black"/>
<path d="M227.387 45V35H228.027V45H227.387ZM228.93 38.3984C228.904 38.112 228.788 37.8893 228.582 37.7305C228.379 37.569 228.089 37.4883 227.711 37.4883C227.461 37.4883 227.253 37.5208 227.086 37.5859C226.919 37.651 226.794 37.7409 226.711 37.8555C226.628 37.9674 226.585 38.0964 226.582 38.2422C226.577 38.362 226.6 38.4674 226.652 38.5586C226.707 38.6497 226.785 38.7305 226.887 38.8008C226.991 38.8685 227.116 38.9284 227.262 38.9805C227.408 39.0326 227.572 39.0781 227.754 39.1172L228.441 39.2734C228.837 39.3594 229.186 39.474 229.488 39.6172C229.793 39.7604 230.048 39.931 230.254 40.1289C230.462 40.3268 230.62 40.5547 230.727 40.8125C230.833 41.0703 230.888 41.3594 230.891 41.6797C230.888 42.1849 230.76 42.6185 230.508 42.9805C230.255 43.3424 229.892 43.6198 229.418 43.8125C228.947 44.0052 228.378 44.1016 227.711 44.1016C227.042 44.1016 226.458 44.0013 225.961 43.8008C225.464 43.6003 225.077 43.2956 224.801 42.8867C224.525 42.4779 224.383 41.9609 224.375 41.3359H226.227C226.242 41.5938 226.311 41.8086 226.434 41.9805C226.556 42.1523 226.724 42.2826 226.938 42.3711C227.154 42.4596 227.404 42.5039 227.688 42.5039C227.948 42.5039 228.169 42.4687 228.352 42.3984C228.536 42.3281 228.678 42.2305 228.777 42.1055C228.876 41.9805 228.927 41.8372 228.93 41.6758C228.927 41.5247 228.88 41.3958 228.789 41.2891C228.698 41.1797 228.557 41.0859 228.367 41.0078C228.18 40.9271 227.94 40.8529 227.648 40.7852L226.812 40.5898C226.12 40.431 225.574 40.1745 225.176 39.8203C224.777 39.4635 224.579 38.9818 224.582 38.375C224.579 37.8802 224.712 37.4466 224.98 37.0742C225.249 36.7018 225.62 36.4115 226.094 36.2031C226.568 35.9948 227.108 35.8906 227.715 35.8906C228.335 35.8906 228.872 35.9961 229.328 36.207C229.786 36.4154 230.142 36.7083 230.395 37.0859C230.647 37.4635 230.776 37.901 230.781 38.3984H228.93ZM232.191 44L235.418 37.6094V37.5586H231.645V36H237.418V37.5703L234.18 44H232.191ZM241.616 44.1953C240.918 44.1953 240.317 44.0299 239.812 43.6992C239.306 43.3659 238.917 42.888 238.644 42.2656C238.37 41.6406 238.235 40.8893 238.237 40.0117C238.24 39.1341 238.377 38.3893 238.647 37.7773C238.921 37.1628 239.309 36.6953 239.812 36.375C240.317 36.0521 240.918 35.8906 241.616 35.8906C242.314 35.8906 242.916 36.0521 243.421 36.375C243.929 36.6953 244.319 37.1628 244.593 37.7773C244.866 38.3919 245.002 39.1367 244.999 40.0117C244.999 40.8919 244.862 41.6445 244.589 42.2695C244.315 42.8945 243.926 43.3724 243.421 43.7031C242.918 44.0312 242.317 44.1953 241.616 44.1953ZM241.616 42.6133C242.033 42.6133 242.37 42.401 242.628 41.9766C242.886 41.5495 243.013 40.8945 243.011 40.0117C243.011 39.4336 242.952 38.957 242.835 38.582C242.718 38.2044 242.555 37.9232 242.347 37.7383C242.138 37.5534 241.895 37.4609 241.616 37.4609C241.202 37.4609 240.868 37.6706 240.612 38.0898C240.357 38.5065 240.228 39.1471 240.226 40.0117C240.223 40.5977 240.279 41.0833 240.394 41.4687C240.511 41.8542 240.675 42.1419 240.886 42.332C241.097 42.5195 241.34 42.6133 241.616 42.6133ZM249.415 44.1953C248.717 44.1953 248.116 44.0299 247.61 43.6992C247.105 43.3659 246.716 42.888 246.442 42.2656C246.169 41.6406 246.034 40.8893 246.036 40.0117C246.039 39.1341 246.175 38.3893 246.446 37.7773C246.72 37.1628 247.108 36.6953 247.61 36.375C248.116 36.0521 248.717 35.8906 249.415 35.8906C250.113 35.8906 250.715 36.0521 251.22 36.375C251.728 36.6953 252.118 37.1628 252.392 37.7773C252.665 38.3919 252.8 39.1367 252.798 40.0117C252.798 40.8919 252.661 41.6445 252.388 42.2695C252.114 42.8945 251.725 43.3724 251.22 43.7031C250.717 44.0312 250.116 44.1953 249.415 44.1953ZM249.415 42.6133C249.832 42.6133 250.169 42.401 250.427 41.9766C250.685 41.5495 250.812 40.8945 250.81 40.0117C250.81 39.4336 250.751 38.957 250.634 38.582C250.517 38.2044 250.354 37.9232 250.146 37.7383C249.937 37.5534 249.694 37.4609 249.415 37.4609C249.001 37.4609 248.666 37.6706 248.411 38.0898C248.156 38.5065 248.027 39.1471 248.024 40.0117C248.022 40.5977 248.078 41.0833 248.192 41.4687C248.31 41.8542 248.474 42.1419 248.685 42.332C248.896 42.5195 249.139 42.6133 249.415 42.6133Z" fill="black"/>
</svg>
