<svg width="343" height="218" viewBox="0 0 343 218" fill="none" xmlns="http://www.w3.org/2000/svg">
<rect width="343" height="218" rx="16" fill="#4DD1A1"/>
<path d="M193 143C193 184.421 226.58 218 268.001 218H343V143C343 101.579 309.421 68 268.001 68C226.58 68 193 101.579 193 143Z" fill="white" fill-opacity="0.4"/>
<path fill-rule="evenodd" clip-rule="evenodd" d="M286 20C286 20.7879 285.845 21.5682 285.543 22.2961C285.242 23.0241 284.8 23.6855 284.243 24.2426C283.685 24.7998 283.024 25.2418 282.296 25.5433C281.568 25.8448 280.788 26 280 26L280 32C281.576 32 283.136 31.6896 284.592 31.0866C286.048 30.4835 287.371 29.5996 288.485 28.4853C289.6 27.371 290.483 26.0481 291.087 24.5922C291.69 23.1363 292 21.5759 292 20L286 20Z" fill="white"/>
<path fill-rule="evenodd" clip-rule="evenodd" d="M295.333 27.0112C294.347 26.3519 293.187 26 292 26V20C294.373 20 296.693 20.7038 298.667 22.0224C300.64 23.3409 302.178 25.2151 303.087 27.4078C303.995 29.6005 304.232 32.0133 303.769 34.3411C303.306 36.6688 302.164 38.8071 300.485 40.4853C298.807 42.1635 296.669 43.3064 294.341 43.7694C292.013 44.2324 289.6 43.9948 287.408 43.0866C285.215 42.1783 283.341 40.6402 282.022 38.6668C280.704 36.6934 280 34.3734 280 32H286C286 33.1867 286.352 34.3467 287.011 35.3334C287.67 36.3201 288.608 37.0891 289.704 37.5433C290.8 37.9974 292.007 38.1162 293.171 37.8847C294.334 37.6532 295.404 37.0818 296.243 36.2427C297.082 35.4035 297.653 34.3344 297.885 33.1705C298.116 32.0067 297.997 30.8002 297.543 29.7039C297.089 28.6075 296.32 27.6705 295.333 27.0112Z" fill="white"/>
<circle cx="305" cy="169" r="14" fill="#F8CB2E" fill-opacity="0.8"/>
<circle cx="285" cy="169" r="14" fill="#E33A24"/>
</svg>
