<svg width="52" height="52" viewBox="0 0 52 52" fill="none" xmlns="http://www.w3.org/2000/svg">
<g filter="url(#filter0_d_75_6343)">
<path d="M28.4444 15.6689L38.2222 5.89111L34.7756 2.44444L28.4444 8.77556V0H23.5556V8.77556L17.2244 2.44444L13.7778 5.89111L23.5556 15.6689V19.5556H19.6689L9.89111 9.77778L6.44444 13.2244L12.7756 19.5556H4V24.4444H12.7756L6.44444 30.7756L9.89111 34.2222L19.6689 24.4444H23.5556V28.3311L13.7778 38.1089L17.2244 41.5556L23.5556 35.2244V44H28.4444V35.2244L34.7756 41.5556L38.2222 38.1089L28.4444 28.3311V24.4444H32.3311L42.1089 34.2222L45.5556 30.7756L39.2244 24.4444H48V19.5556H28.4444V15.6689Z" fill="white"/>
</g>
<defs>
<filter id="filter0_d_75_6343" x="0" y="0" width="52" height="52" filterUnits="userSpaceOnUse" color-interpolation-filters="sRGB">
<feFlood flood-opacity="0" result="BackgroundImageFix"/>
<feColorMatrix in="SourceAlpha" type="matrix" values="0 0 0 0 0 0 0 0 0 0 0 0 0 0 0 0 0 0 127 0" result="hardAlpha"/>
<feOffset dy="4"/>
<feGaussianBlur stdDeviation="2"/>
<feComposite in2="hardAlpha" operator="out"/>
<feColorMatrix type="matrix" values="0 0 0 0 0 0 0 0 0 0 0 0 0 0 0 0 0 0 0.25 0"/>
<feBlend mode="normal" in2="BackgroundImageFix" result="effect1_dropShadow_75_6343"/>
<feBlend mode="normal" in="SourceGraphic" in2="effect1_dropShadow_75_6343" result="shape"/>
</filter>
</defs>
</svg>
