<svg width="56" height="36" viewBox="0 0 56 36" fill="none" xmlns="http://www.w3.org/2000/svg">
<path d="M18 5.5C11.0964 5.5 5.5 11.0964 5.5 18C5.5 24.9035 11.0964 30.5 18 30.5H38C44.9035 30.5 50.5 24.9035 50.5 18C50.5 11.0964 44.9035 5.5 38 5.5H18ZM18 0.5H38C47.665 0.5 55.5 8.33503 55.5 18C55.5 27.665 47.665 35.5 38 35.5H18C8.33503 35.5 0.5 27.665 0.5 18C0.5 8.33503 8.33503 0.5 18 0.5ZM18 25.5C13.8579 25.5 10.5 22.1423 10.5 18C10.5 13.8577 13.8579 10.5 18 10.5C22.1421 10.5 25.5 13.8577 25.5 18C25.5 22.1423 22.1421 25.5 18 25.5Z" fill="white"/>
</svg>
