<svg width="26" height="26" viewBox="0 0 26 26" fill="none" xmlns="http://www.w3.org/2000/svg">
<path d="M9.41032 4.33341L12.2342 1.5096C12.6572 1.08652 13.3432 1.08652 13.7662 1.5096L16.59 4.33341H20.5835C21.1819 4.33341 21.6669 4.81844 21.6669 5.41675V9.41023L24.4907 12.2341C24.9137 12.6571 24.9137 13.3431 24.4907 13.7661L21.6669 16.5899V20.5834C21.6669 21.1818 21.1819 21.6668 20.5835 21.6668H16.59L13.7662 24.4906C13.3432 24.9136 12.6572 24.9136 12.2342 24.4906L9.41032 21.6668H5.41684C4.81854 21.6668 4.33351 21.1818 4.33351 20.5834V16.5899L1.50969 13.7661C1.08661 13.3431 1.08661 12.6571 1.50969 12.2341L4.33351 9.41023V5.41675C4.33351 4.81844 4.81854 4.33341 5.41684 4.33341H9.41032ZM6.50017 6.50008V10.3077L3.80779 13.0001L6.50017 15.6925V19.5001H10.3078L13.0002 22.1925L15.6926 19.5001H19.5002V15.6925L22.1926 13.0001L19.5002 10.3077V6.50008H15.6926L13.0002 3.80769L10.3078 6.50008H6.50017ZM13.0002 17.3334C10.6069 17.3334 8.66684 15.3933 8.66684 13.0001C8.66684 10.6068 10.6069 8.66675 13.0002 8.66675C15.3934 8.66675 17.3335 10.6068 17.3335 13.0001C17.3335 15.3933 15.3934 17.3334 13.0002 17.3334ZM13.0002 15.1668C14.1968 15.1668 15.1669 14.1968 15.1669 13.0001C15.1669 11.8035 14.1968 10.8334 13.0002 10.8334C11.8035 10.8334 10.8335 11.8035 10.8335 13.0001C10.8335 14.1968 11.8035 15.1668 13.0002 15.1668Z" fill="#3E3C3C"/>
</svg>
