<svg width="12" height="12" viewBox="0 0 12 12" fill="none" xmlns="http://www.w3.org/2000/svg">
<path d="M9.26239 10.1276C8.31885 10.7378 7.19989 11.0912 6.00002 11.0912C3.00952 11.0912 0.521606 8.89643 0 6.00001C0.242182 4.65517 0.908256 3.46162 1.85171 2.56878L0.117586 0.800002L0.901911 0L11.8824 11.2L11.0981 12L9.26239 10.1276ZM2.63654 3.3693C1.89955 4.05403 1.36218 4.96312 1.13201 6.00001C1.64083 8.29211 3.6509 9.9598 6.00002 9.9598C6.88704 9.9598 7.72576 9.72199 8.45356 9.30259L7.32867 8.15521C6.94394 8.40248 6.48834 8.54559 6.00002 8.54559C4.62166 8.54559 3.5043 7.40585 3.5043 6.00001C3.5043 5.50187 3.64456 5.03716 3.887 4.64476L2.63654 3.3693ZM6.5067 7.31681L4.709 5.48321C4.64735 5.64329 4.6135 5.81758 4.6135 6.00001C4.6135 6.78105 5.23428 7.41423 6.00002 7.41423C6.17882 7.41423 6.34975 7.37966 6.5067 7.31681ZM10.8841 8.59781L10.0906 7.78842C10.4543 7.25957 10.7225 6.6553 10.868 6.00001C10.3592 3.70785 8.34908 2.0402 6.00002 2.0402C5.53088 2.0402 5.07528 2.10671 4.64246 2.23142L3.76729 1.33875C4.45877 1.06125 5.21193 0.908834 6.00002 0.908834C8.99047 0.908834 11.4784 3.10355 12 6.00001C11.8269 6.96145 11.437 7.84562 10.8841 8.59781ZM5.84617 3.45917C5.89703 3.45601 5.94833 3.45441 6.00002 3.45441C7.37831 3.45441 8.49571 4.59411 8.49571 6.00001C8.49571 6.05268 8.4941 6.10501 8.49105 6.15688L5.84617 3.45917Z" fill="#696969"/>
</svg>
